<svg width="28" height="29" viewBox="0 0 28 29" fill="none" xmlns="http://www.w3.org/2000/svg">
<path d="M13.75 0.75C6.16 0.75 0 6.91 0 14.5C0 22.09 6.16 28.25 13.75 28.25C21.34 28.25 27.5 22.09 27.5 14.5C27.5 6.91 21.34 0.75 13.75 0.75ZM13.75 4.875C16.0325 4.875 17.875 6.7175 17.875 9C17.875 11.2825 16.0325 13.125 13.75 13.125C11.4675 13.125 9.625 11.2825 9.625 9C9.625 6.7175 11.4675 4.875 13.75 4.875ZM13.75 24.4C10.3125 24.4 7.27375 22.64 5.5 19.9725C5.54125 17.2362 11 15.7375 13.75 15.7375C16.4862 15.7375 21.9587 17.2362 22 19.9725C20.2262 22.64 17.1875 24.4 13.75 24.4Z" fill="white"/>
</svg>
